<?xml version="1.0" standalone="no"?>
<!DOCTYPE svg PUBLIC "-//W3C//DTD SVG 20010904//EN"
 "http://www.w3.org/TR/2001/REC-SVG-20010904/DTD/svg10.dtd">
<svg version="1.0" xmlns="http://www.w3.org/2000/svg"
 width="300.000000pt" height="225.000000pt" viewBox="0 0 300.000000 225.000000"
 preserveAspectRatio="xMidYMid meet">
<metadata>
Created by potrace 1.10, written by Peter Selinger 2001-2011
</metadata>
<g transform="translate(0.000000,225.000000) scale(0.100000,-0.100000)"
fill="#000000" stroke="none">
<path d="M1030 1905 c-211 -39 -382 -186 -544 -469 -69 -120 -136 -273 -140
-322 -3 -27 -10 -40 -35 -55 -31 -18 -31 -18 -71 2 -34 18 -44 19 -75 9 -38
-13 -75 -54 -102 -116 -13 -29 -17 -67 -17 -149 -1 -103 1 -114 29 -170 19
-37 43 -69 64 -83 20 -13 35 -32 36 -44 4 -52 104 -98 177 -83 103 23 191 131
232 285 l15 55 0 -48 c2 -144 63 -301 148 -384 141 -138 488 -238 823 -238
144 0 171 3 209 20 l44 21 -209 0 c-220 0 -278 7 -481 58 -184 47 -304 106
-376 186 -72 80 -130 261 -113 354 6 30 12 36 39 41 18 4 91 16 162 29 l130
22 3 45 c9 155 56 305 118 378 20 23 34 44 31 47 -2 3 -60 -11 -127 -31 -67
-20 -125 -33 -128 -30 -6 6 -11 2 65 58 35 25 99 58 146 75 73 26 124 37 285
57 43 5 41 -10 -5 -32 -55 -25 -163 -138 -200 -208 -58 -110 -78 -202 -77
-355 1 -116 5 -148 28 -225 34 -111 76 -192 135 -258 137 -152 238 -186 545
-188 142 -1 156 1 214 25 58 24 65 25 85 11 30 -21 171 -21 212 1 23 12 34 13
51 3 17 -8 43 -8 110 0 167 22 254 60 332 145 54 60 82 121 102 223 17 87 8
377 -15 463 -35 132 -103 238 -176 275 -49 26 -182 54 -396 85 -117 16 -217
30 -223 30 -5 0 -10 8 -10 18 0 32 -57 135 -105 190 -115 130 -288 224 -493
267 -91 19 -133 19 -157 1 -17 -12 -14 -14 36 -21 208 -27 379 -95 509 -202
66 -54 100 -93 146 -170 40 -67 42 -77 11 -69 -19 4 -343 46 -361 46 -3 0 -6
7 -6 16 0 9 -16 51 -36 93 -102 213 -373 357 -594 316z m237 -56 c135 -50 269
-167 323 -281 33 -70 37 -98 15 -98 -8 0 -15 5 -15 11 0 6 -13 39 -30 73 -55
116 -189 227 -323 268 -56 17 -86 20 -159 16 -77 -5 -100 -11 -163 -42 -96
-47 -213 -158 -295 -277 -66 -96 -156 -269 -187 -357 -16 -48 -46 -82 -59 -69
-3 3 19 62 49 131 217 504 534 739 844 625z m-12 -77 c32 -13 45 -22 35 -26
-8 -3 -40 -15 -71 -26 -182 -67 -365 -243 -470 -454 l-41 -83 -91 -23 c-51
-13 -107 -29 -124 -36 -18 -7 -35 -9 -37 -5 -9 13 151 325 203 396 103 141
203 224 316 264 77 28 205 24 280 -7z m198 -132 c28 -30 63 -82 79 -115 l28
-60 -27 -12 c-54 -23 -109 -26 -137 -8 -52 34 -251 0 -391 -66 -78 -38 -155
-109 -155 -144 0 -20 -7 -25 -35 -31 -20 -3 -39 -3 -43 0 -10 11 53 127 109
200 95 126 199 209 344 276 45 21 86 43 90 49 11 18 81 -27 138 -89z m550
-250 c294 -37 558 -77 611 -91 94 -25 146 -68 189 -154 55 -113 83 -285 73
-455 -10 -173 -50 -276 -134 -351 -66 -57 -150 -84 -324 -104 l-56 -6 -7 31
c-4 17 -20 47 -37 66 -45 51 -85 48 -174 -15 -122 -86 -169 -106 -259 -109
-44 -2 -144 1 -222 6 -133 10 -147 13 -219 47 -137 66 -243 205 -290 380 -25
95 -30 258 -9 351 48 219 190 380 371 423 77 18 251 11 487 -19z m-1011 -227
c-26 -61 -49 -151 -57 -229 l-7 -60 -166 -32 c-92 -18 -218 -44 -281 -57 -63
-14 -115 -24 -116 -22 -1 1 -7 38 -13 82 -7 44 -20 101 -29 127 -9 26 -15 49
-12 51 2 1 150 42 329 90 179 49 334 92 345 96 29 12 30 7 7 -46z m-750 -150
c43 -45 61 -119 56 -226 -3 -70 -9 -103 -27 -140 -46 -94 -113 -95 -160 -2
-21 43 -25 64 -25 145 -1 111 16 179 54 220 35 38 68 38 102 3z m303 -295
c-11 -57 -74 -175 -110 -207 -41 -36 -102 -54 -149 -46 -39 8 -96 40 -96 55 0
13 17 13 26 -1 11 -18 83 -3 111 23 36 33 64 83 77 136 12 46 13 47 67 58 83
18 81 18 74 -18z m-180 2 c11 -18 -18 -90 -51 -128 -36 -42 -57 -38 -26 5 11
16 28 52 37 81 17 51 28 62 40 42z m1932 -445 c12 -24 14 -38 7 -45 -7 -7 -52
-10 -113 -8 l-102 3 63 42 c83 55 121 57 145 8z"/>
<path d="M1621 1342 c-25 -9 -71 -41 -103 -71 -105 -96 -158 -248 -158 -448 0
-198 60 -365 166 -462 74 -68 121 -82 284 -88 161 -6 199 5 331 93 87 57 119
65 168 39 38 -19 81 -71 81 -97 0 -20 4 -20 108 -16 90 4 115 9 157 30 68 35
128 102 154 172 67 179 37 528 -58 677 -54 85 -33 81 -726 159 -294 34 -342
35 -404 12z m294 -52 c88 -11 273 -31 410 -45 138 -14 268 -31 290 -36 64 -18
128 -89 154 -173 45 -145 47 -398 5 -520 -38 -111 -142 -176 -281 -176 -59 0
-63 2 -77 29 -33 63 -118 109 -182 97 -19 -4 -63 -27 -98 -51 -131 -90 -133
-90 -301 -89 -161 1 -192 8 -260 59 -160 122 -216 491 -111 722 59 126 153
201 256 203 19 0 107 -9 195 -20z"/>
<path d="M1935 1151 c-7 -12 46 -18 323 -39 123 -10 226 -14 228 -10 5 8 -11
13 -86 27 -149 28 -452 42 -465 22z"/>
<path d="M149 898 c-7 -13 -13 -53 -13 -89 0 -108 53 -160 81 -79 26 75 6 182
-34 188 -14 2 -26 -5 -34 -20z"/>
</g>
</svg>
